<?xml version="1.0" encoding="UTF-8"?>
<svg xmlns="http://www.w3.org/2000/svg" version="1.1" width="512px" height="512px" style="shape-rendering:geometricPrecision; text-rendering:geometricPrecision; image-rendering:optimizeQuality; fill-rule:evenodd; clip-rule:evenodd" xmlns:xlink="http://www.w3.org/1999/xlink">
  <g><path style="opacity:0.994" fill="#000000" d="M 37.5,-0.5 C 128.167,-0.5 218.833,-0.5 309.5,-0.5C 344.41,32.9089 378.91,66.9089 413,101.5C 413.667,102.833 414.333,104.167 415,105.5C 415.5,128.831 415.667,152.164 415.5,175.5C 404.833,175.5 394.167,175.5 383.5,175.5C 383.5,159.5 383.5,143.5 383.5,127.5C 359.498,127.667 335.498,127.5 311.5,127C 299,123.833 291.167,116 288,103.5C 287.5,79.5023 287.333,55.5023 287.5,31.5C 207.499,31.3333 127.499,31.5 47.5,32C 40.4342,32.4469 35.6008,35.9469 33,42.5C 31.8413,113.465 31.3413,184.465 31.5,255.5C 31.3413,326.535 31.8413,397.535 33,468.5C 35.6008,475.053 40.4342,478.553 47.5,479C 84.8318,479.5 122.165,479.667 159.5,479.5C 159.5,490.167 159.5,500.833 159.5,511.5C 118.833,511.5 78.1667,511.5 37.5,511.5C 17.8333,505.833 5.16667,493.167 -0.5,473.5C -0.5,328.167 -0.5,182.833 -0.5,37.5C 5.16667,17.8333 17.8333,5.16667 37.5,-0.5 Z"/></g>
  <g><path style="opacity:0.994" fill="#000000" d="M 137.5,255.5 C 163.502,255.333 189.502,255.5 215.5,256C 228,259.167 235.833,267 239,279.5C 239.667,300.833 239.667,322.167 239,343.5C 235.833,356 228,363.833 215.5,367C 196.836,367.5 178.17,367.667 159.5,367.5C 159.5,383.5 159.5,399.5 159.5,415.5C 148.833,415.5 138.167,415.5 127.5,415.5C 127.333,365.499 127.5,315.499 128,265.5C 130.022,260.98 133.189,257.647 137.5,255.5 Z M 159.5,287.5 C 175.5,287.5 191.5,287.5 207.5,287.5C 207.5,303.5 207.5,319.5 207.5,335.5C 191.5,335.5 175.5,335.5 159.5,335.5C 159.5,319.5 159.5,303.5 159.5,287.5 Z"/></g>
  <g><path style="opacity:1" fill="#000000" d="M 255.5,255.5 C 266.167,255.5 276.833,255.5 287.5,255.5C 287.5,276.833 287.5,298.167 287.5,319.5C 308.833,319.5 330.167,319.5 351.5,319.5C 351.5,298.167 351.5,276.833 351.5,255.5C 362.167,255.5 372.833,255.5 383.5,255.5C 383.5,308.833 383.5,362.167 383.5,415.5C 372.833,415.5 362.167,415.5 351.5,415.5C 351.5,394.167 351.5,372.833 351.5,351.5C 330.167,351.5 308.833,351.5 287.5,351.5C 287.5,372.833 287.5,394.167 287.5,415.5C 276.833,415.5 266.167,415.5 255.5,415.5C 255.5,362.167 255.5,308.833 255.5,255.5 Z"/></g>
  <g><path style="opacity:0.994" fill="#000000" d="M 511.5,279.5 C 511.5,300.833 511.5,322.167 511.5,343.5C 508.637,352.204 503.304,359.037 495.5,364C 492.911,365.197 490.244,366.197 487.5,367C 468.836,367.5 450.17,367.667 431.5,367.5C 431.5,383.5 431.5,399.5 431.5,415.5C 420.833,415.5 410.167,415.5 399.5,415.5C 399.333,365.499 399.5,315.499 400,265.5C 401.833,261 405,257.833 409.5,256C 435.5,255.333 461.5,255.333 487.5,256C 493.214,257.392 498.214,260.059 502.5,264C 506.626,268.6 509.626,273.766 511.5,279.5 Z M 431.5,287.5 C 447.5,287.5 463.5,287.5 479.5,287.5C 479.5,303.5 479.5,319.5 479.5,335.5C 463.5,335.5 447.5,335.5 431.5,335.5C 431.5,319.5 431.5,303.5 431.5,287.5 Z"/></g>
</svg>
